<svg xmlns="http://www.w3.org/2000/svg" xmlns:xlink="http://www.w3.org/1999/xlink" version="1.1" width="64" height="64" viewBox="0 0 256 256" xml:space="preserve">

<defs>
</defs>
<g style="stroke: none; stroke-width: 0; stroke-dasharray: none; stroke-linecap: butt; stroke-linejoin: miter; stroke-miterlimit: 10; fill: none; fill-rule: nonzero; opacity: 1;" transform="translate(1.4065934065934016 1.4065934065934016) scale(2.81 2.81)" >
	<path d="M 71.646 61.84 c -4.527 0 -8.21 -3.683 -8.21 -8.21 s 3.683 -8.21 8.21 -8.21 s 8.21 3.683 8.21 8.21 S 76.173 61.84 71.646 61.84 z M 71.646 47.42 c -3.424 0 -6.21 2.786 -6.21 6.21 s 2.786 6.21 6.21 6.21 s 6.21 -2.786 6.21 -6.21 S 75.069 47.42 71.646 47.42 z" style="stroke: none; stroke-width: 1; stroke-dasharray: none; stroke-linecap: butt; stroke-linejoin: miter; stroke-miterlimit: 10; fill: rgb(226,39,39); fill-rule: nonzero; opacity: 1;" transform=" matrix(1 0 0 1 0 0) " stroke-linecap="round" />
	<path d="M 17.305 61.84 c -4.527 0 -8.209 -3.683 -8.209 -8.21 s 3.683 -8.21 8.209 -8.21 s 8.21 3.683 8.21 8.21 S 21.832 61.84 17.305 61.84 z M 17.305 47.42 c -3.424 0 -6.209 2.786 -6.209 6.21 s 2.786 6.21 6.209 6.21 c 3.424 0 6.21 -2.786 6.21 -6.21 S 20.729 47.42 17.305 47.42 z" style="stroke: none; stroke-width: 1; stroke-dasharray: none; stroke-linecap: butt; stroke-linejoin: miter; stroke-miterlimit: 10; fill: rgb(226,39,39); fill-rule: nonzero; opacity: 1;" transform=" matrix(1 0 0 1 0 0) " stroke-linecap="round" />
	<path d="M 10.762 57.657 c -0.079 0 -0.158 -0.009 -0.238 -0.028 l -7.062 -1.721 c -2.164 -0.527 -3.614 -2.521 -3.449 -4.742 l 0.638 -8.606 c 0.118 -1.595 0.704 -3.1 1.694 -4.353 l 3.406 -4.315 c 2.876 -3.643 7.188 -5.732 11.829 -5.732 H 41.38 c 2.652 0 5.268 0.704 7.563 2.036 l 12.271 7.12 l 23.302 5.286 C 87.744 43.334 90 46.158 90 49.47 v 3.078 c 0 2.186 -1.639 4.011 -3.812 4.246 l -7.891 0.857 c -0.554 0.06 -1.043 -0.337 -1.103 -0.886 c -0.06 -0.55 0.337 -1.043 0.886 -1.103 l 7.892 -0.857 C 87.129 54.681 88 53.71 88 52.548 V 49.47 c 0 -2.371 -1.615 -4.393 -3.927 -4.917 l -23.451 -5.32 c -0.099 -0.022 -0.192 -0.06 -0.28 -0.11 l -12.402 -7.197 c -1.991 -1.155 -4.259 -1.765 -6.56 -1.765 H 17.579 c -4.025 0 -7.764 1.812 -10.259 4.972 l -3.406 4.315 c -0.741 0.939 -1.18 2.066 -1.269 3.261 l -0.638 8.606 c -0.092 1.241 0.719 2.355 1.929 2.65 l 7.062 1.721 c 0.537 0.131 0.866 0.672 0.735 1.208 C 11.621 57.351 11.212 57.657 10.762 57.657 z" style="stroke: none; stroke-width: 1; stroke-dasharray: none; stroke-linecap: butt; stroke-linejoin: miter; stroke-miterlimit: 10; fill: rgb(226,39,39); fill-rule: nonzero; opacity: 1;" transform=" matrix(1 0 0 1 0 0) " stroke-linecap="round" />
	<path d="M 65.103 57.657 H 23.85 c -0.552 0 -1 -0.447 -1 -1 s 0.448 -1 1 -1 h 41.252 c 0.553 0 1 0.447 1 1 S 65.655 57.657 65.103 57.657 z" style="stroke: none; stroke-width: 1; stroke-dasharray: none; stroke-linecap: butt; stroke-linejoin: miter; stroke-miterlimit: 10; fill: rgb(226,39,39); fill-rule: nonzero; opacity: 1;" transform=" matrix(1 0 0 1 0 0) " stroke-linecap="round" />
	<path d="M 51.252 41.503 H 20.133 c -1.85 0 -3.586 -0.905 -4.645 -2.422 c -1.059 -1.516 -1.31 -3.458 -0.672 -5.194 l 1.861 -5.072 c 0.19 -0.519 0.765 -0.783 1.284 -0.594 c 0.519 0.19 0.784 0.765 0.594 1.284 l -1.862 5.072 c -0.419 1.14 -0.26 2.364 0.435 3.36 c 0.695 0.996 1.791 1.566 3.005 1.566 h 31.119 c 2.792 0 5.507 -0.563 8.067 -1.675 l 1.126 -0.489 c 0.509 -0.22 1.096 0.013 1.315 0.52 c 0.221 0.506 -0.012 1.095 -0.519 1.315 l -1.126 0.489 C 57.302 40.884 54.319 41.503 51.252 41.503 z" style="stroke: none; stroke-width: 1; stroke-dasharray: none; stroke-linecap: butt; stroke-linejoin: miter; stroke-miterlimit: 10; fill: rgb(226,39,39); fill-rule: nonzero; opacity: 1;" transform=" matrix(1 0 0 1 0 0) " stroke-linecap="round" />
	<path d="M 71.649 54.63 c -0.14 0 -0.27 -0.03 -0.39 -0.08 s -0.229 -0.12 -0.32 -0.21 c -0.189 -0.19 -0.3 -0.44 -0.3 -0.71 c 0 -0.26 0.11 -0.521 0.3 -0.71 c 0.36 -0.37 1.04 -0.37 1.41 0 c 0.19 0.189 0.29 0.439 0.29 0.71 c 0 0.27 -0.1 0.52 -0.29 0.71 c -0.09 0.09 -0.2 0.16 -0.319 0.21 C 71.91 54.6 71.78 54.63 71.649 54.63 z" style="stroke: none; stroke-width: 1; stroke-dasharray: none; stroke-linecap: butt; stroke-linejoin: miter; stroke-miterlimit: 10; fill: rgb(226,39,39); fill-rule: nonzero; opacity: 1;" transform=" matrix(1 0 0 1 0 0) " stroke-linecap="round" />
	<path d="M 17.3 54.63 c -0.13 0 -0.26 -0.03 -0.38 -0.08 s -0.23 -0.12 -0.32 -0.21 c -0.19 -0.19 -0.29 -0.44 -0.29 -0.71 c 0 -0.13 0.02 -0.26 0.07 -0.38 c 0.05 -0.13 0.13 -0.23 0.22 -0.33 c 0.27 -0.28 0.72 -0.37 1.09 -0.21 c 0.12 0.05 0.23 0.12 0.32 0.21 c 0.19 0.189 0.3 0.45 0.3 0.71 c 0 0.27 -0.11 0.52 -0.3 0.71 S 17.57 54.63 17.3 54.63 z" style="stroke: none; stroke-width: 1; stroke-dasharray: none; stroke-linecap: butt; stroke-linejoin: miter; stroke-miterlimit: 10; fill: rgb(226,39,39); fill-rule: nonzero; opacity: 1;" transform=" matrix(1 0 0 1 0 0) " stroke-linecap="round" />
	<path d="M 36.115 41.503 c -0.507 0 -0.942 -0.384 -0.994 -0.899 l -1.149 -11.343 c -0.056 -0.549 0.345 -1.04 0.895 -1.096 c 0.552 -0.054 1.041 0.345 1.096 0.895 l 1.149 11.343 c 0.056 0.549 -0.345 1.04 -0.895 1.096 C 36.182 41.502 36.148 41.503 36.115 41.503 z" style="stroke: none; stroke-width: 1; stroke-dasharray: none; stroke-linecap: butt; stroke-linejoin: miter; stroke-miterlimit: 10; fill: rgb(226,39,39); fill-rule: nonzero; opacity: 1;" transform=" matrix(1 0 0 1 0 0) " stroke-linecap="round" />
</g>
</svg>